# AST/ASF file generated using VICON BodyLanguage
# -----------------------------------------------
:version 1.10
:name VICON
:units
  mass 1.0
  length 0.45
  angle deg
:documentation
   .ast/.asf automatically generated from VICON data using
   VICON BodyBuilder and BodyLanguage model FoxedUp or BRILLIANT.MOD
:root
   order TX TY TZ RX RY RZ
   axis XYZ
   position 0 0 0  
   orientation 0 0 0 
:bonedata
  begin
     id 1 
     name lhipjoint
     direction 0.677091 -0.635792 0.370561 
     length 2.74323 
     axis 0 0 0  XYZ
  end
  begin
     id 2 
     name lfemur
     direction 0.34202 -0.939693 0  
     length 7.44995  
     axis 0 0 20  XYZ
    dof rx ry rz
    limits (-160.0 20.0)
           (-70.0 70.0)
           (-60.0 70.0)
  end
  begin
     id 3 
     name ltibia
     direction 0.34202 -0.939693 0   
     length 7.34467   
     axis 0 0 20   XYZ
    dof rx
    limits (-10.0 170.0)
  end
  begin
     id 4 
     name lfoot
     direction 0.101953 -0.280114 0.954537   
     length 1.72105   
     axis -90 7.62852e-016 20   XYZ
    dof rx rz
    limits (-45.0 90.0)
           (-70.0 20.0)
  end
  begin
     id 5 
     name ltoes
     direction 1.53537e-011 -4.21915e-011 1   
     length 0.865872   
     axis -90 7.62852e-016 20   XYZ
    dof rx
    limits (-90.0 20.0)
  end
  begin
     id 6 
     name rhipjoint
     direction -0.695735 -0.620586 0.361699   
     length 2.81045  
     axis 0 0 0  XYZ 
  end
  begin
     id 7 
     name rfemur
     direction -0.34202 -0.939693 0   
     length 7.29387   
     axis 0 0 -20   XYZ
    dof rx ry rz
    limits (-160.0 20.0)
           (-70.0 70.0)
           (-70.0 60.0)
  end
  begin
     id 8 
     name rtibia
     direction -0.34202 -0.939693 0   
     length 7.44935   
     axis 0 0 -20   XYZ
    dof rx
    limits (-10.0 170.0)
 end
 begin
     id 9 
     name rfoot
     direction -0.104163 -0.286184 0.952496   
     length 1.77731  
     axis -90 -7.62852e-016 -20   XYZ
    dof rx rz
    limits (-45.0 90.0)
           (-20.0 70.0)
  end
  begin
     id 10 
     name rtoes
     direction -1.5355e-011 -4.21888e-011 1   
     length 0.892424   
     axis -90 -7.62852e-016 -20   XYZ
    dof rx
    limits (-90.0 20.0)
  end
  begin
     id 11 
     name lowerback
     direction 0.0100202 0.997226 -0.0737589   
     length 2.16892   
     axis 0 0 0   XYZ
    dof rx ry rz
    limits (-20.0 45.0)
           (-30.0 30.0)
           (-30.0 30.0)
  end
  begin
     id 12 
     name upperback
     direction 0.00432398 0.999988 -0.00215019   
     length 2.17326   
     axis 0 0 0   XYZ
    dof rx ry rz
    limits (-20.0 45.0)
           (-30.0 30.0)
           (-30.0 30.0)
  end
  begin
     id 13 
     name thorax
     direction -0.00195047 0.999485 0.0320434   
     length 2.18139   
     axis 0 0 0   XYZ
    dof rx ry rz
    limits (-20.0 45.0)
           (-30.0 30.0)
           (-30.0 30.0)
  end
  begin
     id 14 
     name lowerneck
     direction 0.00782762 0.986241 0.165128   
     length 1.88415   
     axis 0 0 0   XYZ
    dof rx ry rz
    limits (-20.0 45.0)
           (-30.0 30.0)
           (-30.0 30.0)
  end
  begin
     id 15 
     name upperneck
     direction 0.00988667 0.981098 -0.193258   
     length 1.9242   
     axis 0 0 0   XYZ
    dof rx ry rz
    limits (-20.0 45.0)
           (-30.0 30.0)
           (-30.0 30.0)
  end
  begin
     id 16
     name head
     direction 0.00252199 0.996513 -0.0833958  
     length 1.93887  
     axis 0 0 0   XYZ
    dof rx ry rz
    limits (-20.0 45.0)
           (-30.0 30.0)
           (-30.0 30.0)
  end
  begin
     id 17 
     name lclavicle
     direction 0.929492 0.368193 -0.0218667  
     length 3.5955  
     axis 0 0 0   XYZ
    dof ry rz
    limits (-20.0 10.0)
           (0.0 20.0)
  end
  begin
     id 18 
     name lhumerus
     direction 1 -4.48972e-011 1.41911e-027   
     length 5.2795   
     axis 180 -30 -90   XYZ
    dof rx ry rz
    limits (-60.0 90.0)
           (-90.0 90.0)
           (-90.0 90.0)
  end
  begin
     id 19
     name lradius
     direction 1 -4.48963e-011 7.05772e-027   
     length 3.53504   
     axis 180 -30 -90   XYZ
    dof rx
    limits (-10.0 170.0)
  end
  begin
     id 20
     name lwrist
     direction 1 -4.48957e-011 9.54866e-027   
     length 1.76752   
     axis -7.69462e-015 90 90   XYZ
    dof ry
    limits (-180.0 0.0)
 end
  begin
     id 21 
     name lhand
     direction 1 -4.48979e-011 1.90973e-026   
     length 0.667948   
     axis -1.21857e-014 90 90   XYZ
    dof rx rz
    limits (-90.0 90.0)
           (-45.0 45.0)
  end
  begin
     id 22 
     name lfingers
     direction 1 -4.48987e-011 3.81946e-026   
     length 0.538517   
     axis -2.43714e-014 90 90   XYZ
    dof rx
    limits (0.0 90.0)
  end
  begin
     id 23
     name lthumb
     direction 0.707107 -6.34962e-011 0.707107   
     length 0.773206   
     axis -90 45 2.85299e-015   XYZ
    dof rx rz
    limits (-45.0 45.0)
           (-45.0 45.0)
  end
  begin
     id 24 
     name rclavicle
     direction -0.898763 0.414256 -0.143584   
     length 3.5176  
     axis 0 0 0   XYZ 
    dof ry rz
    limits (-10.0 20.0)
           (-20.0 0.0)
  end
  begin
     id 25 
     name rhumerus
     direction -1 -4.48971e-011 1.129e-027  
     length 5.25035   
     axis 180 30 90   XYZ
    dof rx ry rz
    limits (-90.0 60.0)
           (-90.0 90.0)
           (-90.0 90.0)
  end
  begin
     id 26 
     name rradius
     direction -1 -4.48955e-011 6.34664e-027   
     length 3.58884   
     axis 180 30 90   XYZ
    dof rx
    limits (-10.0 170.0)
  end
  begin
     id 27 
     name rwrist
     direction -1 -4.48966e-011 9.54866e-027   
     length 1.79442   
     axis -7.69462e-015 -90 -90   XYZ
    dof ry
    limits (-180.0 0.0)
  end
  begin
     id 28
     name rhand
     direction -1 -4.48973e-011 1.90973e-026   
     length 0.779235   
     axis -1.21857e-014 -90 -90   XYZ
    dof rx rz
    limits (-90.0 90.0)
           (-45.0 45.0)
  end
  begin
     id 29
     name rfingers
     direction -1 -4.48984e-011 3.81946e-026   
     length 0.62824   
     axis -2.43714e-014 -90 -90   XYZ
    dof rx
    limits (0.0 90.0)
  end
  begin
     id 30
     name rthumb
     direction -0.707107 -6.34968e-011 0.707107   
     length 0.90203   
     axis -90 -45 -2.85299e-015   XYZ
    dof rx rz
    limits (-45.0 45.0)
           (-45.0 45.0)
  end
:hierarchy
  begin
    root lhipjoint rhipjoint lowerback
    lhipjoint lfemur
    lfemur ltibia
    ltibia lfoot
    lfoot ltoes
    rhipjoint rfemur
    rfemur rtibia
    rtibia rfoot
    rfoot rtoes
    lowerback upperback
    upperback thorax
    thorax lowerneck lclavicle rclavicle
    lowerneck upperneck
    upperneck head
    lclavicle lhumerus
    lhumerus lradius
    lradius lwrist
    lwrist lhand lthumb
    lhand lfingers
    rclavicle rhumerus
    rhumerus rradius
    rradius rwrist
    rwrist rhand rthumb
    rhand rfingers
  end

#!OML:ASF I:\Random Stuff\random\construction\7_22_03\Session 2\subj1.ASF
:FULLY-SPECIFIED
:DEGREES
225
root -9.41611 17.7195 -6.16272 -357.5 78.086 -369.325
lowerback 10.0994 0.120937 -1.88622
upperback 0.540571 -0.0664468 -0.699937
thorax -5.1018 0.0139208 0.340961
lowerneck -19.5104 4.63686 3.77178
upperneck 34.4991 7.07055 -1.70188
head 15.6516 3.4653 0.0333074
rclavicle -1.17283e-014 -2.06736e-014
rhumerus -36.7825 29.6132 -97.2235
rradius 68.375
rwrist -11.2144
rhand -27.484 16.242
rfingers 7.12502
rthumb -0.887501 -13.7359
lclavicle -1.17283e-014 -2.06736e-014
lhumerus -7.70848 -22.3097 87.1201
lradius 31.9256
lwrist -16.3875
lhand -23.538 55.2332
lfingers 7.12502
lthumb 2.92358 85.1929
rfemur -15.8181 17.1116 9.26242
rtibia 10.2649
rfoot -2.47798 -14.6228
rtoes -23.6392
lfemur -21.4559 -5.42024 -13.3894
ltibia 23.2146
lfoot -15.0133 12.8991
ltoes -29.1148
226
root -9.42135 17.7175 -6.20531 -357.136 77.5081 -369.164
lowerback 10.1144 0.318643 -2.18973
upperback 0.600781 0.152549 -0.936944
thorax -5.05175 0.126623 0.23328
lowerneck -19.3548 4.59392 3.72588
upperneck 34.2002 7.01206 -1.74179
head 15.4687 3.4298 0.00272001
rclavicle 2.18663e-015 -1.03368e-014
rhumerus -36.4336 29.531 -97.3978
rradius 67.9657
rwrist -11.498
rhand -28.4804 16.8688
rfingers 7.12502
rthumb -1.84993 -13.1029
lclavicle 2.18663e-015 -1.03368e-014
lhumerus -7.55398 -22.6697 86.8967
lradius 31.7751
lwrist -15.5373
lhand -23.9819 55.3251
lfingers 7.12502
lthumb 2.49479 85.2902
rfemur -15.895 17.5276 8.93344
rtibia 9.43255
rfoot -1.89737 -14.463
rtoes -24.7327
lfemur -21.7211 -5.35995 -13.5009
ltibia 23.4592
lfoot -15.1387 13.4575
ltoes -28.9226
227
root -9.42135 17.7156 -6.24626 -356.804 77.1411 -369.031
lowerback 10.087 0.439035 -2.42463
upperback 0.643119 0.278827 -1.15549
thorax -4.99483 0.192185 0.119758
lowerneck -19.2682 4.58565 3.70819
upperneck 34.0338 7.00906 -1.784
head 15.3702 3.42029 -0.0181959
rclavicle 2.18663e-015 -3.97569e-015
rhumerus -36.2059 29.5224 -97.5707
rradius 67.6254
rwrist -11.6884
rhand -29.4704 17.5412
rfingers 7.12502
rthumb -2.80601 -12.4201
lclavicle 2.18663e-015 -3.97569e-015
lhumerus -7.5471 -22.8605 86.7684
lradius 31.8682
lwrist -15.6705
lhand -24.3681 55.2422
lfingers 7.12502
lthumb 2.12187 85.2113
rfemur -15.8223 17.727 8.60091
rtibia 8.50436
rfoot -1.55502 -14.2442
rtoes -25.0041
lfemur -22.0304 -5.22476 -13.6267
ltibia 23.7396
lfoot -15.3411 13.6555
ltoes -29.0172
228
root -9.41849 17.7098 -6.28606 -356.805 76.9927 -369.073
lowerback 10.2384 0.457255 -2.54039
upperback 0.695664 0.279193 -1.34599
thorax -5.02424 0.194324 -0.0148587
lowerneck -19.1433 4.64269 3.71948
upperneck 33.9236 7.09506 -1.80418
head 15.2936 3.4563 -0.0177941
rclavicle 3.57812e-015 2.06736e-014
rhumerus -36.1282 29.6261 -97.7577
rradius 67.5076
rwrist -12.0007
rhand -30.2223 17.9764
rfingers 7.12502
rthumb -3.53212 -11.9741
lclavicle 3.57812e-015 2.06736e-014
lhumerus -7.72623 -23.0346 86.7085
lradius 32.237
lwrist -15.255
lhand -25.1584 55.4017
lfingers 7.12502
lthumb 1.35854 85.3771
rfemur -15.4798 17.7473 8.39135
rtibia 7.60188
rfoot -1.28379 -14.0036
rtoes -25.186
lfemur -22.1916 -5.15663 -13.7298
ltibia 24.0088
lfoot -15.5594 13.6286
ltoes -28.7816
229
root -9.41449 17.7013 -6.32139 -356.686 76.8871 -368.878
lowerback 10.4544 0.485835 -2.69569
upperback 0.802742 0.289104 -1.5292
thorax -5.0329 0.202252 -0.121374
lowerneck -19.1149 4.66124 3.66503
upperneck 33.8439 7.13572 -1.80169
head 15.248 3.46606 -0.00228602
rclavicle -2.62396e-014 4.77083e-015
rhumerus -36.0278 29.6791 -97.8636
rradius 67.5058
rwrist -12.3292
rhand -31.0006 18.4688
rfingers 7.12502
rthumb -4.28369 -11.4678
lclavicle -2.62396e-014 4.77083e-015
lhumerus -7.81333 -23.416 86.7147
lradius 32.5712
lwrist -13.7537
lhand -27.3976 55.6715
lfingers 7.12502
lthumb -0.804103 85.6498
rfemur -15.0058 17.7625 8.18744
rtibia 6.75937
rfoot -1.07666 -13.7956
rtoes -25.3113
lfemur -22.2189 -5.09262 -13.8999
ltibia 24.2609
lfoot -15.7425 13.5499
ltoes -28.4069
230
root -9.40968 17.6954 -6.35031 -356.226 76.7873 -368.335
lowerback 10.6002 0.540549 -2.93498
upperback 0.919714 0.326452 -1.72556
thorax -4.99272 0.225122 -0.197951
lowerneck -19.0901 4.63302 3.61166
upperneck 33.7502 7.11475 -1.82804
head 15.1959 3.44626 -0.0107032
rclavicle 1.23246e-014 -2.22639e-014
rhumerus -35.8907 29.6524 -97.8894
rradius 67.5196
rwrist -12.5256
rhand -31.9182 19.2747
rfingers 7.12502
rthumb -5.16977 -10.6422
lclavicle 1.23246e-014 -2.22639e-014
lhumerus -7.70716 -22.9671 86.681
lradius 32.9921
lwrist -14.7362
lhand -26.3897 56.5136
lfingers 7.12502
lthumb 0.169314 86.4932
rfemur -14.5069 17.7718 7.94166
rtibia 5.93142
rfoot -0.941247 -13.5808
rtoes -25.2156
lfemur -22.2571 -4.87308 -14.1795
ltibia 24.5102
lfoot -15.8814 13.3852
ltoes -28.1203
231
root -9.40398 17.6902 -6.37342 -355.914 76.6953 -367.898
lowerback 10.7781 0.606086 -3.17204
upperback 1.02289 0.37724 -1.89666
thorax -4.98519 0.255045 -0.252145
lowerneck -18.9724 4.61078 3.64412
upperneck 33.5865 7.09802 -1.93178
head 15.0984 3.43044 -0.0684703
rclavicle -3.97569e-015 5.56597e-015
rhumerus -35.8332 29.5173 -97.8857
rradius 67.601
rwrist -12.6079
rhand -32.8014 20.329
rfingers 7.12502
rthumb -6.02252 -9.56542
lclavicle -3.97569e-015 5.56597e-015
lhumerus -7.71308 -22.568 86.7335
lradius 33.4064
lwrist -15.0621
lhand -25.7445 57.1547
lfingers 7.12502
lthumb 0.79256 87.133
rfemur -13.9809 17.7958 7.77621
rtibia 5.17816
rfoot -0.763875 -13.3922
rtoes -25.0622
lfemur -22.253 -4.38533 -14.4746
ltibia 24.7539
lfoot -16.0481 12.9677
ltoes -27.637
232
root -9.39776 17.6842 -6.39234 -356.064 76.633 -367.865
lowerback 10.986 0.679095 -3.33372
upperback 1.16199 0.448864 -2.0194
thorax -4.95674 0.293662 -0.301584
lowerneck -18.903 4.5919 3.69351
upperneck 33.4647 7.09084 -2.05775
head 15.0342 3.4168 -0.13413
rclavicle 3.29983e-014 1.90833e-014
rhumerus -35.7737 29.2461 -97.8254
rradius 67.7396
rwrist -12.5487
rhand -33.5842 21.3836
rfingers 7.12502
rthumb -6.77816 -8.48793
lclavicle 3.29983e-014 1.90833e-014
lhumerus -7.68204 -22.1603 86.7876
lradius 33.7032
lwrist -15.2849
lhand -25.8832 57.0422
lfingers 7.12502
lthumb 0.658561 87.0209
rfemur -13.4403 17.8237 7.77236
rtibia 4.58313
rfoot -0.600775 -13.2596
rtoes -25.0048
lfemur -22.1652 -3.86709 -14.6636
ltibia 24.998
lfoot -16.2522 12.4472
ltoes -27.0533
233
root -9.3917 17.6776 -6.40712 -356.482 76.6843 -368.128
lowerback 11.1044 0.710338 -3.41823
upperback 1.3205 0.481148 -2.1
thorax -4.85681 0.31062 -0.343107
lowerneck -18.8408 4.5758 3.71677
upperneck 33.3555 7.10038 -2.18907
head 14.9774 3.40609 -0.193791
rclavicle -1.59028e-015 -1.27222e-014
rhumerus -35.6863 28.9854 -97.6983
rradius 67.9254
rwrist -12.3821
rhand -34.2748 22.3311
rfingers 7.12502
rthumb -7.44483 -7.51786
lclavicle -1.59028e-015 -1.27222e-014
lhumerus -7.56672 -21.888 86.8286
lradius 33.8727
lwrist -15.2214
lhand -26.3567 56.6715
lfingers 7.12502
lthumb 0.201228 86.6512
rfemur -12.8919 17.7486 7.87563
rtibia 4.00505
rfoot -0.455726 -13.1223
rtoes -25.0409
lfemur -22.1357 -3.56596 -14.7262
ltibia 25.2681
lfoot -16.4484 12.0367
ltoes -26.5522
234
root -9.38605 17.6708 -6.41843 -357.043 76.7899 -368.608
lowerback 11.1483 0.714539 -3.45154
upperback 1.4507 0.48726 -2.13958
thorax -4.74456 0.313474 -0.365811
lowerneck -18.7751 4.54168 3.67257
upperneck 33.2315 7.08101 -2.25697
head 14.9055 3.38369 -0.221442
rclavicle 1.98785e-015 2.46493e-014
rhumerus -35.5976 28.6455 -97.5239
rradius 68.1627
rwrist -12.0978
rhand -34.6544 23.286
rfingers 7.12502
rthumb -7.81124 -6.54974
lclavicle 1.98785e-015 2.46493e-014
lhumerus -7.42839 -21.7866 86.8787
lradius 34.0148
lwrist -14.7457
lhand -26.1379 56.78
lfingers 7.12502
lthumb 0.412536 86.7593
rfemur -12.2925 17.6096 8.01328
rtibia 3.18353
rfoot -0.190868 -12.9398
rtoes -24.9917
lfemur -22.2144 -3.38181 -14.7065
ltibia 25.5791
lfoot -16.6168 11.7665
ltoes -26.1756
235
root -9.38133 17.6653 -6.42804 -357.849 76.8338 -369.373
lowerback 11.2095 0.733112 -3.41086
upperback 1.52057 0.517323 -2.16041
thorax -4.70526 0.327377 -0.415044
lowerneck -18.7703 4.49338 3.55619
upperneck 33.2975 7.0364 -2.18812
head 14.9241 3.36076 -0.180825
rclavicle 7.95139e-016 2.46493e-014
rhumerus -35.5322 28.2375 -97.3494
rradius 68.4531
rwrist -11.8947
rhand -34.7428 24.2917
rfingers 7.12502
rthumb -7.89658 -5.5408
lclavicle 7.95139e-016 2.46493e-014
lhumerus -7.28602 -21.6555 86.9226
lradius 34.0989
lwrist -14.6656
lhand -25.8421 56.9214
lfingers 7.12502
lthumb 0.698291 86.9
rfemur -11.46 17.5257 8.18305
rtibia 1.73149
rfoot 0.461208 -12.6571
rtoes -25.1443
lfemur -22.3311 -3.25326 -14.5952
ltibia 25.9162
lfoot -16.7398 11.6686
ltoes -26.0131
236
root -9.37775 17.6611 -6.4347 -358.884 76.8516 -370.406
lowerback 11.2844 0.763034 -3.31207
upperback 1.51311 0.564601 -2.16237
thorax -4.75464 0.349367 -0.48099
lowerneck -18.7081 4.43151 3.41476
upperneck 33.4997 6.9809 -2.05872
head 14.9883 3.34158 -0.112203
rclavicle -4.77083e-015 -1.90833e-014
rhumerus -35.5648 27.8606 -97.2162
rradius 68.8228
rwrist -11.7964
rhand -34.7895 24.8891
rfingers 7.12502
rthumb -7.94162 -4.94171
lclavicle -4.77083e-015 -1.90833e-014
lhumerus -7.19259 -21.4916 86.9865
lradius 34.0989
lwrist -15.2576
lhand -25.8159 56.9353
lfingers 7.12502
lthumb 0.723602 86.9138
rfemur -10.5557 17.4627 8.40647
rtibia -3.33958e-014
rfoot 1.31281 -12.2991
rtoes -25.4723
lfemur -22.4929 -3.12831 -14.3899
ltibia 26.2453
lfoot -16.8721 11.5694
ltoes -26.2116
237
root -9.37413 17.6568 -6.43728 -360.058 76.9056 -371.586
lowerback 11.2094 0.766402 -3.25874
upperback 1.58527 0.58528 -2.10226
thorax -4.63768 0.357588 -0.449132
lowerneck -18.5742 4.38655 3.32985
upperneck 33.5035 6.95961 -2.06902
head 14.9553 3.32432 -0.109346
rclavicle -9.14409e-015 2.62396e-014
rhumerus -35.4705 27.6495 -97.0355
rradius 69.1969
rwrist -11.6105
rhand -34.568 25.3467
rfingers 7.12502
rthumb -7.72781 -4.4921
lclavicle -9.14409e-015 2.62396e-014
lhumerus -7.01907 -21.2315 87.0218
lradius 34.0982
lwrist -16.2347
lhand -25.7748 56.9227
lfingers 7.12502
lthumb 0.763246 86.901
rfemur -10.4998 17.3606 8.71265
rtibia 5.56597e-015
rfoot 1.23507 -12.1995
rtoes -25.4536
lfemur -22.6403 -3.05059 -14.1244
ltibia 26.531
lfoot -17.0466 11.4344
ltoes -26.4179
238
root -9.36954 17.6533 -6.4394 -360.935 76.9656 -372.44
lowerback 11.2001 0.760613 -3.25773
upperback 1.62918 0.582043 -2.06763
thorax -4.58674 0.355661 -0.412319
lowerneck -18.4337 4.35573 3.32433
upperneck 33.5132 6.94207 -2.10718
head 14.9288 3.31492 -0.130777
rclavicle 1.27222e-014 -9.54166e-015
rhumerus -35.3939 27.6219 -96.913
rradius 69.5824
rwrist -11.5027
rhand -34.0208 25.7103
rfingers 7.12502
rthumb -7.19965 -4.14727
lclavicle 1.27222e-014 -9.54166e-015
lhumerus -6.9965 -21.3372 87.0121
lradius 34.1162
lwrist -16.3413
lhand -25.8763 56.9655
lfingers 7.12502
lthumb 0.665241 86.9442
rfemur -10.403 17.2518 8.94672
rtibia 1.43125e-014
rfoot 1.10712 -12.1473
rtoes -25.3168
lfemur -22.6927 -3.09361 -13.9248
ltibia 26.7219
lfoot -17.1954 11.3837
ltoes -26.2433
239
root -9.36368 17.6513 -6.44173 -361.149 76.9908 -372.646
lowerback 11.1799 0.800382 -3.33296
upperback 1.65063 0.626733 -2.11036
thorax -4.55411 0.378731 -0.42086
lowerneck -18.3839 4.30286 3.31534
upperneck 33.6399 6.86244 -2.03711
head 14.9694 3.29281 -0.114294
rclavicle -9.93923e-015 -1.59028e-014
rhumerus -35.3068 27.6025 -96.7997
rradius 69.9769
rwrist -11.4917
rhand -33.7591 25.8103
rfingers 7.12502
rthumb -6.94706 -4.05575
lclavicle -9.93923e-015 -1.59028e-014
lhumerus -6.98225 -22.0355 86.9445
lradius 34.0785
lwrist -15.4366
lhand -26.1054 57.2083
lfingers 7.12502
lthumb 0.443938 87.1876
rfemur -10.3617 17.1678 9.00416
rtibia 2.14687e-014
rfoot 1.06685 -12.0681
rtoes -25.6037
lfemur -22.6856 -3.18184 -13.8759
ltibia 26.7862
lfoot -17.3038 11.3974
ltoes -25.8813
